<svg width="198" height="198" viewBox="0 0 198 198" fill="none" xmlns="http://www.w3.org/2000/svg">
<path d="M99 43.3125C129.755 43.3125 154.688 68.2446 154.688 99C154.688 129.755 129.755 154.688 99 154.688C68.2446 154.688 43.3125 129.755 43.3125 99C43.3125 68.2446 68.2446 43.3125 99 43.3125Z" fill="url(#paint0_radial_16_39)"/>
<path d="M99 163.969C104.126 163.969 108.281 168.124 108.281 173.25V182.531C108.281 187.657 104.126 191.812 99 191.812C93.874 191.812 89.7187 187.657 89.7187 182.531V173.25C89.7187 168.124 93.874 163.969 99 163.969ZM158.066 144.94L164.629 151.503C168.253 155.127 168.253 161.003 164.629 164.629C161.004 168.253 155.127 168.253 151.503 164.629L144.94 158.066C141.316 154.441 141.316 148.565 144.94 144.94C148.565 141.315 154.442 141.315 158.066 144.94ZM39.934 144.94C43.5585 141.315 49.4352 141.315 53.0597 144.94C56.4054 148.286 56.6627 153.551 53.8318 157.192L53.0597 158.066L46.4968 164.629C42.8723 168.253 36.9957 168.253 33.3712 164.629C30.0254 161.283 29.768 156.018 32.5991 152.377L33.3712 151.503L39.934 144.94ZM24.75 89.7187C29.8758 89.7187 34.0313 93.874 34.0313 99C34.0313 103.76 30.4483 107.683 25.8324 108.219L24.75 108.281H15.4688C10.3429 108.281 6.1875 104.126 6.1875 99C6.1875 94.2401 9.77047 90.3173 14.3864 89.7812L15.4688 89.7187H24.75ZM182.531 89.7187C187.657 89.7187 191.812 93.874 191.812 99C191.812 104.126 187.657 108.281 182.531 108.281H173.25C168.124 108.281 163.969 104.126 163.969 99C163.969 93.874 168.124 89.7187 173.25 89.7187H182.531ZM33.3714 33.3712C36.7171 30.0255 41.9818 29.7681 45.6227 32.5991L46.4971 33.3712L53.0599 39.934C56.6845 43.5585 56.6845 49.4352 53.0599 53.0597C49.7142 56.4054 44.4496 56.6627 40.8086 53.8318L39.9342 53.0597L33.3714 46.4968C29.7468 42.8723 29.7468 36.9957 33.3714 33.3712ZM164.629 33.3714C168.253 36.9959 168.253 42.8725 164.629 46.497L158.066 53.0599C154.441 56.6844 148.565 56.6844 144.94 53.0599C141.315 49.4352 141.315 43.5587 144.94 39.9341L151.503 33.3714C155.127 29.7467 161.003 29.7467 164.629 33.3714ZM99 6.1875C104.126 6.1875 108.281 10.3429 108.281 15.4688V24.75C108.281 29.8758 104.126 34.0313 99 34.0313C93.874 34.0313 89.7187 29.8758 89.7187 24.75V15.4688C89.7187 10.3429 93.874 6.1875 99 6.1875Z" fill="url(#paint1_linear_16_39)"/>
<defs>
<radialGradient id="paint0_radial_16_39" cx="0" cy="0" r="1" gradientUnits="userSpaceOnUse" gradientTransform="translate(60.3281 57.2344) rotate(43.0203) scale(129.054 129.054)">
<stop offset="0.193671" stop-color="#FFE475"/>
<stop offset="0.529275" stop-color="#FFB029"/>
<stop offset="0.780467" stop-color="#FF9100"/>
</radialGradient>
<linearGradient id="paint1_linear_16_39" x1="5.02734" y1="5.02735" x2="192.973" y2="192.973" gradientUnits="userSpaceOnUse">
<stop offset="0.166667" stop-color="#FFE475"/>
<stop offset="0.798611" stop-color="#FFBF29"/>
</linearGradient>
</defs>
</svg>
